<svg width="260" height="260" viewBox="0 0 260 260" fill="none" xmlns="http://www.w3.org/2000/svg">
<g filter="url(#filter0_ddd_54_2237)">
<path fill-rule="evenodd" clip-rule="evenodd" d="M213.695 102.174C215.799 102.174 217.504 103.879 217.504 105.983V183.211C217.504 186.8 216.735 190.346 215.251 193.642C213.767 196.937 211.602 199.91 208.896 202.399C206.191 204.888 202.997 206.847 199.502 208.178C196.008 209.51 192.273 210.192 188.507 210.192H168.045L131.766 229.763L130.019 226.525L131.766 229.763C130.326 230.539 128.688 230.873 127.071 230.744C125.453 230.616 123.884 230.026 122.586 229.015C121.284 228.001 120.306 226.598 119.851 224.97C119.395 223.337 119.504 221.611 120.152 220.05L124.247 210.192H71.3998C63.807 210.192 56.4678 207.42 51.01 202.399C45.5416 197.368 42.4024 190.474 42.4023 183.211V173.38C42.4023 171.276 44.1075 169.571 46.2109 169.571C48.3144 169.571 50.0195 171.276 50.0195 173.38V183.211C50.0195 188.239 52.188 193.133 56.1672 196.793C60.157 200.464 65.6316 202.575 71.3998 202.575H129.953C131.226 202.575 132.414 203.21 133.121 204.269C133.828 205.327 133.959 206.669 133.47 207.844L127.2 222.94C127.212 222.956 127.232 222.979 127.267 223.006C127.35 223.071 127.49 223.136 127.675 223.151C127.86 223.166 128.028 223.124 128.149 223.059L165.275 203.031C165.831 202.732 166.452 202.575 167.083 202.575H188.507C191.356 202.575 194.172 202.058 196.79 201.061C199.407 200.063 201.766 198.608 203.739 196.793C205.711 194.979 207.257 192.843 208.305 190.515C209.353 188.188 209.887 185.707 209.887 183.211V105.983C209.887 103.879 211.592 102.174 213.695 102.174Z" fill="#FF6EBD"/>
<path fill-rule="evenodd" clip-rule="evenodd" d="M60.4043 50.5096C63.8985 49.1781 67.6339 48.4961 71.3998 48.4961H188.507C192.273 48.4961 196.008 49.1781 199.502 50.5096C202.997 51.8412 206.191 53.8002 208.896 56.2888C211.602 58.778 213.767 61.7505 215.251 65.0457C216.735 68.342 217.504 71.8877 217.504 75.4771V87.8409C217.504 89.9444 215.799 91.6495 213.695 91.6495C211.592 91.6495 209.887 89.9444 209.887 87.8409V75.4771C209.887 72.9804 209.353 70.4995 208.305 68.173C207.257 65.8454 205.711 63.7089 203.739 61.8946C201.766 60.0797 199.407 58.625 196.79 57.6275C194.172 56.63 191.356 56.1133 188.507 56.1133H71.3998C68.55 56.1133 65.7345 56.63 63.1166 57.6275C60.499 58.625 58.14 60.0798 56.1672 61.8947C54.195 63.709 52.6492 65.8455 51.6012 68.1731C50.5536 70.4997 50.0195 72.9806 50.0195 75.4772V155.956C50.0195 158.06 48.3144 159.765 46.2109 159.765C44.1075 159.765 42.4023 158.06 42.4023 155.956V75.4772C42.4024 71.8877 43.1714 68.3421 44.6556 65.0458C46.1393 61.7506 48.3042 58.778 51.01 56.2888C53.7152 53.8002 56.9099 51.8412 60.4043 50.5096Z" fill="#FF6EBD"/>
<path fill-rule="evenodd" clip-rule="evenodd" d="M213.695 104.713C214.396 104.713 214.965 105.282 214.965 105.983V183.211C214.965 186.436 214.274 189.627 212.936 192.6C211.597 195.572 209.639 198.266 207.177 200.531C204.716 202.795 201.8 204.586 198.598 205.806C195.396 207.026 191.967 207.653 188.507 207.653H167.404L130.56 227.528C129.56 228.067 128.412 228.304 127.272 228.213C126.132 228.123 125.039 227.708 124.146 227.012C123.252 226.316 122.598 225.367 122.297 224.287C121.995 223.205 122.066 222.063 122.497 221.024L128.051 207.653H71.3998C64.4152 207.653 57.6975 205.101 52.7291 200.531C47.7571 195.956 44.9414 189.729 44.9414 183.211V173.38C44.9414 172.679 45.5098 172.11 46.2109 172.11C46.9121 172.11 47.4805 172.679 47.4805 173.38V183.211C47.4805 188.984 49.9725 194.545 54.4481 198.662C58.9273 202.783 65.0234 205.114 71.3998 205.114H129.953C130.377 205.114 130.774 205.326 131.009 205.679C131.245 206.031 131.288 206.479 131.126 206.87L124.842 221.998C124.628 222.515 124.594 223.073 124.742 223.604C124.891 224.135 125.22 224.63 125.707 225.009C126.194 225.389 126.811 225.629 127.473 225.682C128.136 225.735 128.794 225.596 129.355 225.293L166.481 205.266C166.666 205.166 166.873 205.114 167.083 205.114H188.507C191.662 205.114 194.784 204.542 197.694 203.433C200.604 202.324 203.241 200.701 205.458 198.662C207.675 196.623 209.427 194.208 210.62 191.557C211.813 188.908 212.426 186.072 212.426 183.211V105.983C212.426 105.282 212.994 104.713 213.695 104.713Z" fill="#FF008C"/>
<path fill-rule="evenodd" clip-rule="evenodd" d="M61.3084 52.8823C64.5105 51.6621 67.9392 51.0351 71.3998 51.0352H188.507C191.967 51.0351 195.396 51.6621 198.598 52.8822C201.8 54.1024 204.716 55.8934 207.177 58.1574C209.639 60.4216 211.597 63.1155 212.936 66.0882C214.274 69.0612 214.965 72.2519 214.965 75.4771V87.8409C214.965 88.5421 214.396 89.1105 213.695 89.1105C212.994 89.1105 212.426 88.5421 212.426 87.8409V75.4771C212.426 72.6162 211.813 69.7804 210.62 67.1306C209.427 64.4805 207.675 62.0653 205.458 60.026C203.241 57.9865 200.604 56.3637 197.694 55.2549C194.784 54.146 191.662 53.5742 188.507 53.5742H71.3998C68.2446 53.5742 65.1225 54.146 62.2125 55.2549C59.3026 56.3637 56.665 57.9866 54.4481 60.026C52.2314 62.0653 50.4792 64.4805 49.286 67.1307C48.0929 69.7805 47.4805 72.6163 47.4805 75.4772V155.956C47.4805 156.657 46.9121 157.226 46.2109 157.226C45.5098 157.226 44.9414 156.657 44.9414 155.956V75.4772C44.9414 72.252 45.6322 69.0613 46.9708 66.0882C48.3093 63.1155 50.2678 60.4217 52.7291 58.1574C55.1901 55.8934 58.1062 54.1025 61.3084 52.8823Z" fill="#FF008C"/>
</g>
<g filter="url(#filter1_dd_54_2237)">
<path fill-rule="evenodd" clip-rule="evenodd" d="M83.7146 98.2617C83.7146 96.0706 85.4908 94.2944 87.6819 94.2944H172.317C174.508 94.2944 176.285 96.0706 176.285 98.2617C176.285 100.453 174.508 102.229 172.317 102.229H87.6819C85.4908 102.229 83.7146 100.453 83.7146 98.2617Z" fill="white"/>
<path fill-rule="evenodd" clip-rule="evenodd" d="M83.7146 130C83.7146 127.809 85.4908 126.033 87.6819 126.033H172.317C174.508 126.033 176.285 127.809 176.285 130C176.285 132.191 174.508 133.967 172.317 133.967H87.6819C85.4908 133.967 83.7146 132.191 83.7146 130Z" fill="white"/>
<path fill-rule="evenodd" clip-rule="evenodd" d="M83.7146 161.738C83.7146 159.547 85.4908 157.771 87.6819 157.771H151.158C153.35 157.771 155.126 159.547 155.126 161.738C155.126 163.929 153.35 165.706 151.158 165.706H87.6819C85.4908 165.706 83.7146 163.929 83.7146 161.738Z" fill="white"/>
</g>
<defs>
<filter id="filter0_ddd_54_2237" x="29.707" y="35.8008" width="205.57" height="212.744" filterUnits="userSpaceOnUse" color-interpolation-filters="sRGB">
<feFlood flood-opacity="0" result="BackgroundImageFix"/>
<feColorMatrix in="SourceAlpha" type="matrix" values="0 0 0 0 0 0 0 0 0 0 0 0 0 0 0 0 0 0 127 0" result="hardAlpha"/>
<feOffset dx="12.6953" dy="12.6953"/>
<feGaussianBlur stdDeviation="2.53906"/>
<feColorMatrix type="matrix" values="0 0 0 0 0 0 0 0 0 0 0 0 0 0 0 0 0 0 0.3 0"/>
<feBlend mode="normal" in2="BackgroundImageFix" result="effect1_dropShadow_54_2237"/>
<feColorMatrix in="SourceAlpha" type="matrix" values="0 0 0 0 0 0 0 0 0 0 0 0 0 0 0 0 0 0 127 0" result="hardAlpha"/>
<feOffset/>
<feGaussianBlur stdDeviation="2.53906"/>
<feColorMatrix type="matrix" values="0 0 0 0 1 0 0 0 0 0 0 0 0 0 0.54902 0 0 0 1 0"/>
<feBlend mode="normal" in2="effect1_dropShadow_54_2237" result="effect2_dropShadow_54_2237"/>
<feColorMatrix in="SourceAlpha" type="matrix" values="0 0 0 0 0 0 0 0 0 0 0 0 0 0 0 0 0 0 127 0" result="hardAlpha"/>
<feOffset/>
<feGaussianBlur stdDeviation="6.34766"/>
<feColorMatrix type="matrix" values="0 0 0 0 1 0 0 0 0 0.431373 0 0 0 0 0.741176 0 0 0 1 0"/>
<feBlend mode="normal" in2="effect2_dropShadow_54_2237" result="effect3_dropShadow_54_2237"/>
<feBlend mode="normal" in="SourceGraphic" in2="effect3_dropShadow_54_2237" result="shape"/>
</filter>
<filter id="filter1_dd_54_2237" x="53.8281" y="53.8281" width="152.344" height="152.344" filterUnits="userSpaceOnUse" color-interpolation-filters="sRGB">
<feFlood flood-opacity="0" result="BackgroundImageFix"/>
<feColorMatrix in="SourceAlpha" type="matrix" values="0 0 0 0 0 0 0 0 0 0 0 0 0 0 0 0 0 0 127 0" result="hardAlpha"/>
<feOffset dx="5.07812" dy="7.61719"/>
<feGaussianBlur stdDeviation="1.26953"/>
<feColorMatrix type="matrix" values="0 0 0 0 0 0 0 0 0 0 0 0 0 0 0 0 0 0 0.25 0"/>
<feBlend mode="normal" in2="BackgroundImageFix" result="effect1_dropShadow_54_2237"/>
<feColorMatrix in="SourceAlpha" type="matrix" values="0 0 0 0 0 0 0 0 0 0 0 0 0 0 0 0 0 0 127 0" result="hardAlpha"/>
<feOffset/>
<feGaussianBlur stdDeviation="6.34766"/>
<feColorMatrix type="matrix" values="0 0 0 0 1 0 0 0 0 1 0 0 0 0 1 0 0 0 0.5 0"/>
<feBlend mode="normal" in2="effect1_dropShadow_54_2237" result="effect2_dropShadow_54_2237"/>
<feBlend mode="normal" in="SourceGraphic" in2="effect2_dropShadow_54_2237" result="shape"/>
</filter>
</defs>
</svg>
