<svg width="375" height="284" viewBox="0 0 375 284" fill="none" xmlns="http://www.w3.org/2000/svg">
<g filter="url(#filter0_ddd_26_797)">
<path d="M338 77.2707V56.997C338 52.0072 336.833 47.0662 334.565 42.4562C332.298 37.8461 328.975 33.6574 324.785 30.129C320.595 26.6007 315.622 23.8018 310.148 21.8923C304.674 19.9828 298.807 19 292.882 19H83.1185C77.1935 19 71.3265 19.9828 65.8525 21.8923C60.3784 23.8019 55.4046 26.6007 51.2149 30.1291C47.0253 33.6575 43.702 37.8462 41.4345 42.4563C39.1671 47.0663 38 52.0073 38 56.9972V188.963" stroke="#63E2FF" stroke-width="5.75694" stroke-linecap="round" stroke-linejoin="round"/>
<path d="M338 77.2707V56.997C338 52.0072 336.833 47.0662 334.565 42.4562C332.298 37.8461 328.975 33.6574 324.785 30.129C320.595 26.6007 315.622 23.8018 310.148 21.8923C304.674 19.9828 298.807 19 292.882 19H83.1185C77.1935 19 71.3265 19.9828 65.8525 21.8923C60.3784 23.8019 55.4046 26.6007 51.2149 30.1291C47.0253 33.6575 43.702 37.8462 41.4345 42.4563C39.1671 47.0663 38 52.0073 38 56.9972V188.963" stroke="url(#paint0_linear_26_797)" stroke-width="3.45417" stroke-linecap="round" stroke-linejoin="round"/>
<path d="M38.0002 202.729V223.003C38.0002 227.993 39.1672 232.934 41.4346 237.544C43.702 242.154 47.0253 246.343 51.215 249.871C55.4046 253.399 60.3784 256.198 65.8523 258.108C71.3263 260.017 77.1934 261 83.1184 261L292.882 261C298.807 261 304.674 260.017 310.148 258.108C315.622 256.198 320.595 253.399 324.785 249.871C328.975 246.343 332.298 242.154 334.565 237.544C336.833 232.934 338 227.993 338 223.003V91.0372" stroke="#63E2FF" stroke-width="5.75694" stroke-linecap="round" stroke-linejoin="round"/>
<path d="M38.0001 202.729V223.003C38.0002 227.993 39.1671 232.934 41.4346 237.544C43.702 242.154 47.0253 246.343 51.215 249.871C55.4046 253.399 60.3783 256.198 65.8523 258.108C71.3263 260.017 77.1934 261 83.1184 261H292.882C298.807 261 304.674 260.017 310.148 258.108C315.622 256.198 320.595 253.399 324.785 249.871C328.975 246.343 332.298 242.154 334.565 237.544C336.833 232.934 338 227.993 338 223.003V91.0372" stroke="url(#paint1_linear_26_797)" stroke-width="3.45417" stroke-linecap="round" stroke-linejoin="round"/>
</g>
<g filter="url(#filter1_dd_26_797)">
<path d="M68.44 175C67.6773 175 67.032 174.765 66.504 174.296C66.0347 173.768 65.8 173.123 65.8 172.36V108.912C65.8 108.149 66.0347 107.533 66.504 107.064C67.032 106.536 67.6773 106.272 68.44 106.272C69.2027 106.272 69.8187 106.536 70.288 107.064C70.816 107.533 71.08 108.149 71.08 108.912V137.952H115.52V108.912C115.52 108.149 115.755 107.533 116.224 107.064C116.752 106.536 117.397 106.272 118.16 106.272C118.864 106.272 119.48 106.536 120.008 107.064C120.536 107.533 120.8 108.149 120.8 108.912V172.36C120.8 173.123 120.536 173.768 120.008 174.296C119.48 174.765 118.864 175 118.16 175C117.397 175 116.752 174.765 116.224 174.296C115.755 173.768 115.52 173.123 115.52 172.36V142.704H71.08V172.36C71.08 173.123 70.816 173.768 70.288 174.296C69.8187 174.765 69.2027 175 68.44 175ZM161.473 175.44C156.839 175.44 152.703 174.413 149.065 172.36C145.487 170.248 142.671 167.344 140.617 163.648C138.564 159.952 137.537 155.728 137.537 150.976C137.537 146.165 138.505 141.941 140.441 138.304C142.377 134.608 145.047 131.704 148.449 129.592C151.852 127.48 155.753 126.424 160.153 126.424C164.495 126.424 168.337 127.451 171.681 129.504C175.025 131.499 177.636 134.285 179.513 137.864C181.391 141.384 182.329 145.461 182.329 150.096C182.329 150.859 182.095 151.475 181.625 151.944C181.156 152.355 180.54 152.56 179.777 152.56H142.905C143.081 156.08 143.991 159.189 145.633 161.888C147.276 164.587 149.447 166.699 152.145 168.224C154.903 169.749 158.012 170.512 161.473 170.512C163.761 170.512 166.049 170.131 168.337 169.368C170.684 168.547 172.532 167.491 173.881 166.2C174.351 165.731 174.908 165.496 175.553 165.496C176.257 165.437 176.844 165.613 177.313 166.024C177.959 166.552 178.281 167.139 178.281 167.784C178.34 168.429 178.076 169.016 177.489 169.544C175.612 171.245 173.148 172.653 170.097 173.768C167.105 174.883 164.231 175.44 161.473 175.44ZM160.153 131.352C157.103 131.352 154.345 132.056 151.881 133.464C149.417 134.872 147.393 136.837 145.809 139.36C144.284 141.824 143.345 144.699 142.993 147.984H177.225C176.815 143.056 175.055 139.067 171.945 136.016C168.836 132.907 164.905 131.352 160.153 131.352ZM206.122 175C202.778 175 200.021 173.651 197.85 170.952C195.738 168.253 194.682 164.763 194.682 160.48V108.912C194.682 108.091 194.917 107.445 195.386 106.976C195.914 106.507 196.56 106.272 197.322 106.272C198.144 106.272 198.789 106.507 199.258 106.976C199.728 107.445 199.962 108.091 199.962 108.912V160.48C199.962 163.179 200.52 165.408 201.634 167.168C202.808 168.869 204.304 169.72 206.122 169.72H208.322C209.789 169.72 210.522 170.6 210.522 172.36C210.522 173.123 210.288 173.768 209.818 174.296C209.349 174.765 208.704 175 207.882 175H206.122ZM232.481 175C229.137 175 226.38 173.651 224.209 170.952C222.097 168.253 221.041 164.763 221.041 160.48V108.912C221.041 108.091 221.276 107.445 221.745 106.976C222.273 106.507 222.918 106.272 223.681 106.272C224.502 106.272 225.148 106.507 225.617 106.976C226.086 107.445 226.321 108.091 226.321 108.912V160.48C226.321 163.179 226.878 165.408 227.993 167.168C229.166 168.869 230.662 169.72 232.481 169.72H234.681C236.148 169.72 236.881 170.6 236.881 172.36C236.881 173.123 236.646 173.768 236.177 174.296C235.708 174.765 235.062 175 234.241 175H232.481ZM268.496 175.528C263.802 175.528 259.578 174.472 255.824 172.36C252.128 170.189 249.194 167.256 247.024 163.56C244.912 159.805 243.856 155.611 243.856 150.976C243.856 146.283 244.912 142.088 247.024 138.392C249.194 134.637 252.128 131.704 255.824 129.592C259.578 127.421 263.802 126.336 268.496 126.336C273.189 126.336 277.384 127.421 281.08 129.592C284.776 131.704 287.68 134.637 289.792 138.392C291.962 142.088 293.048 146.283 293.048 150.976C293.048 155.611 291.962 159.805 289.792 163.56C287.68 167.256 284.776 170.189 281.08 172.36C277.384 174.472 273.189 175.528 268.496 175.528ZM268.496 170.6C272.192 170.6 275.477 169.749 278.352 168.048C281.285 166.288 283.573 163.941 285.216 161.008C286.917 158.016 287.768 154.672 287.768 150.976C287.768 147.221 286.917 143.877 285.216 140.944C283.573 137.952 281.285 135.605 278.352 133.904C275.477 132.144 272.192 131.264 268.496 131.264C264.858 131.264 261.573 132.144 258.64 133.904C255.706 135.605 253.389 137.952 251.688 140.944C249.986 143.877 249.136 147.221 249.136 150.976C249.136 154.672 249.986 158.016 251.688 161.008C253.389 163.941 255.706 166.288 258.64 168.048C261.573 169.749 264.858 170.6 268.496 170.6ZM309.83 159.864C309.126 159.864 308.481 159.629 307.894 159.16C307.366 158.632 307.102 157.987 307.102 157.224V108.912C307.102 108.091 307.366 107.445 307.894 106.976C308.422 106.448 309.068 106.184 309.83 106.184C310.593 106.184 311.209 106.448 311.678 106.976C312.206 107.445 312.47 108.091 312.47 108.912V157.224C312.47 157.987 312.177 158.632 311.59 159.16C311.062 159.629 310.476 159.864 309.83 159.864ZM309.83 175C308.54 175 307.454 174.589 306.574 173.768C305.753 172.888 305.342 171.803 305.342 170.512C305.342 169.221 305.782 168.165 306.662 167.344C307.542 166.523 308.598 166.112 309.83 166.112C311.062 166.112 312.089 166.552 312.91 167.432C313.79 168.253 314.23 169.28 314.23 170.512C314.23 171.744 313.79 172.8 312.91 173.68C312.089 174.56 311.062 175 309.83 175Z" fill="#FFFDE9"/>
<path d="M66.504 174.296L63.5144 176.953L63.6707 177.129L63.8465 177.286L66.504 174.296ZM66.504 107.064L69.3324 109.892L69.3324 109.892L66.504 107.064ZM70.288 107.064L67.2984 109.721L67.4547 109.897L67.6306 110.054L70.288 107.064ZM71.08 137.952H67.08V141.952H71.08V137.952ZM115.52 137.952V141.952H119.52V137.952H115.52ZM116.224 107.064L119.052 109.892L119.052 109.892L116.224 107.064ZM120.008 107.064L117.18 109.892L117.263 109.976L117.351 110.054L120.008 107.064ZM120.008 174.296L122.665 177.286L122.753 177.208L122.836 177.124L120.008 174.296ZM116.224 174.296L113.234 176.953L113.391 177.129L113.567 177.286L116.224 174.296ZM115.52 142.704H119.52V138.704H115.52V142.704ZM71.08 142.704V138.704H67.08V142.704H71.08ZM70.288 174.296L67.4596 171.468L70.288 174.296ZM68.44 171C68.4735 171 68.5897 171.006 68.751 171.065C68.917 171.125 69.0589 171.215 69.1615 171.306L63.8465 177.286C65.1676 178.46 66.7823 179 68.44 179V171ZM69.4936 171.639C69.5848 171.741 69.6748 171.883 69.7352 172.049C69.7938 172.21 69.8 172.326 69.8 172.36H61.8C61.8 174.018 62.3401 175.632 63.5144 176.953L69.4936 171.639ZM69.8 172.36V108.912H61.8V172.36H69.8ZM69.8 108.912C69.8 108.942 69.7948 109.09 69.714 109.302C69.6291 109.525 69.4937 109.731 69.3324 109.892L63.6756 104.236C62.3429 105.568 61.8 107.26 61.8 108.912H69.8ZM69.3324 109.892C69.2478 109.977 69.1016 110.089 68.8985 110.172C68.6971 110.255 68.5291 110.272 68.44 110.272V102.272C66.6419 102.272 64.9715 102.94 63.6756 104.236L69.3324 109.892ZM68.44 110.272C68.3541 110.272 68.1524 110.255 67.8983 110.147C67.6367 110.034 67.4328 109.873 67.2984 109.721L73.2776 104.407C71.9838 102.951 70.2428 102.272 68.44 102.272V110.272ZM67.6306 110.054C67.4794 109.919 67.3176 109.715 67.2054 109.454C67.0965 109.2 67.08 108.998 67.08 108.912H75.08C75.08 107.109 74.4011 105.368 72.9454 104.074L67.6306 110.054ZM67.08 108.912V137.952H75.08V108.912H67.08ZM71.08 141.952H115.52V133.952H71.08V141.952ZM119.52 137.952V108.912H111.52V137.952H119.52ZM119.52 108.912C119.52 108.942 119.515 109.09 119.434 109.302C119.349 109.525 119.214 109.731 119.052 109.892L113.396 104.236C112.063 105.568 111.52 107.26 111.52 108.912H119.52ZM119.052 109.892C118.968 109.977 118.822 110.089 118.619 110.172C118.417 110.255 118.249 110.272 118.16 110.272V102.272C116.362 102.272 114.692 102.94 113.396 104.236L119.052 109.892ZM118.16 110.272C117.998 110.272 117.789 110.239 117.574 110.147C117.364 110.056 117.234 109.947 117.18 109.892L122.836 104.236C121.609 103.008 119.994 102.272 118.16 102.272V110.272ZM117.351 110.054C117.199 109.919 117.038 109.715 116.925 109.454C116.817 109.2 116.8 108.998 116.8 108.912H124.8C124.8 107.109 124.121 105.368 122.665 104.074L117.351 110.054ZM116.8 108.912V172.36H124.8V108.912H116.8ZM116.8 172.36C116.8 172.271 116.817 172.103 116.9 171.901C116.983 171.698 117.095 171.552 117.18 171.468L122.836 177.124C124.132 175.828 124.8 174.158 124.8 172.36H116.8ZM117.351 171.306C117.423 171.242 117.549 171.153 117.726 171.086C117.903 171.019 118.059 171 118.16 171V179C119.847 179 121.408 178.403 122.665 177.286L117.351 171.306ZM118.16 171C118.194 171 118.31 171.006 118.471 171.065C118.637 171.125 118.779 171.215 118.881 171.306L113.567 177.286C114.888 178.46 116.502 179 118.16 179V171ZM119.214 171.639C119.305 171.741 119.395 171.883 119.455 172.049C119.514 172.21 119.52 172.326 119.52 172.36H111.52C111.52 174.018 112.06 175.632 113.234 176.953L119.214 171.639ZM119.52 172.36V142.704H111.52V172.36H119.52ZM115.52 138.704H71.08V146.704H115.52V138.704ZM67.08 142.704V172.36H75.08V142.704H67.08ZM67.08 172.36C67.08 172.271 67.0974 172.103 67.1798 171.901C67.2629 171.698 67.3749 171.552 67.4596 171.468L73.1164 177.124C74.4124 175.828 75.08 174.158 75.08 172.36H67.08ZM67.4596 171.468C67.6209 171.306 67.8272 171.171 68.05 171.086C68.2622 171.005 68.41 171 68.44 171V179C70.092 179 71.7838 178.457 73.1164 177.124L67.4596 171.468ZM149.065 172.36L147.032 175.805L147.065 175.824L147.099 175.843L149.065 172.36ZM140.617 163.648L144.114 161.705L140.617 163.648ZM140.441 138.304L143.972 140.183L143.978 140.172L143.985 140.16L140.441 138.304ZM148.449 129.592L150.559 132.991L148.449 129.592ZM171.681 129.504L169.588 132.913L169.61 132.926L169.632 132.939L171.681 129.504ZM179.513 137.864L175.971 139.722L175.977 139.734L175.984 139.746L179.513 137.864ZM181.625 151.944L184.259 154.954L184.359 154.867L184.454 154.772L181.625 151.944ZM142.905 152.56V148.56H138.7L138.91 152.76L142.905 152.56ZM145.633 161.888L149.05 159.808L145.633 161.888ZM152.145 168.224L150.177 171.706L150.193 171.715L150.209 171.724L152.145 168.224ZM168.337 169.368L169.602 173.163L169.63 173.153L169.659 173.143L168.337 169.368ZM173.881 166.2L176.646 169.091L176.678 169.06L176.71 169.028L173.881 166.2ZM175.553 165.496V169.496H175.72L175.885 169.482L175.553 165.496ZM177.313 166.024L174.679 169.034L174.729 169.078L174.78 169.12L177.313 166.024ZM178.281 167.784H174.281V167.965L174.298 168.146L178.281 167.784ZM177.489 169.544L174.813 166.571L174.803 166.58L177.489 169.544ZM170.097 173.768L168.724 170.011L168.713 170.015L168.701 170.02L170.097 173.768ZM151.881 133.464L149.897 129.991V129.991L151.881 133.464ZM145.809 139.36L142.422 137.233L142.415 137.244L142.408 137.255L145.809 139.36ZM142.993 147.984L139.016 147.558L138.542 151.984H142.993V147.984ZM177.225 147.984V151.984H181.572L181.211 147.652L177.225 147.984ZM171.945 136.016L169.117 138.844L169.13 138.858L169.144 138.871L171.945 136.016ZM161.473 171.44C157.45 171.44 154.005 170.555 151.032 168.877L147.099 175.843C151.4 178.271 156.227 179.44 161.473 179.44V171.44ZM151.098 168.915C148.144 167.171 145.828 164.791 144.114 161.705L137.121 165.591C139.513 169.897 142.83 173.325 147.032 175.805L151.098 168.915ZM144.114 161.705C142.43 158.674 141.537 155.134 141.537 150.976H133.537C133.537 156.322 134.698 161.23 137.121 165.591L144.114 161.705ZM141.537 150.976C141.537 146.711 142.392 143.152 143.972 140.183L136.91 136.425C134.618 140.73 133.537 145.62 133.537 150.976H141.537ZM143.985 140.16C145.603 137.069 147.789 134.71 150.559 132.991L146.34 126.193C142.304 128.698 139.151 132.147 136.898 136.448L143.985 140.16ZM150.559 132.991C153.266 131.31 156.423 130.424 160.153 130.424V122.424C155.084 122.424 150.437 123.65 146.34 126.193L150.559 132.991ZM160.153 130.424C163.837 130.424 166.939 131.286 169.588 132.913L173.774 126.095C169.735 123.615 165.152 122.424 160.153 122.424V130.424ZM169.632 132.939C172.318 134.541 174.423 136.771 175.971 139.722L183.055 136.006C180.849 131.8 177.733 128.456 173.73 126.069L169.632 132.939ZM175.984 139.746C177.506 142.6 178.329 146.011 178.329 150.096H186.329C186.329 144.911 185.275 140.168 183.043 135.982L175.984 139.746ZM178.329 150.096C178.329 150.066 178.334 149.918 178.415 149.706C178.5 149.483 178.635 149.277 178.797 149.116L184.454 154.772C185.786 153.44 186.329 151.748 186.329 150.096H178.329ZM178.991 148.934C179.173 148.775 179.372 148.67 179.546 148.611C179.71 148.557 179.802 148.56 179.777 148.56V156.56C181.283 156.56 182.907 156.137 184.259 154.954L178.991 148.934ZM179.777 148.56H142.905V156.56H179.777V148.56ZM138.91 152.76C139.116 156.867 140.189 160.637 142.216 163.968L149.05 159.808C147.792 157.742 147.047 155.293 146.9 152.36L138.91 152.76ZM142.216 163.968C144.207 167.238 146.872 169.838 150.177 171.706L154.113 164.742C152.021 163.559 150.345 161.935 149.05 159.808L142.216 163.968ZM150.209 171.724C153.616 173.609 157.403 174.512 161.473 174.512V166.512C158.621 166.512 156.189 165.89 154.081 164.724L150.209 171.724ZM161.473 174.512C164.214 174.512 166.928 174.054 169.602 173.163L167.072 165.573C165.17 166.207 163.308 166.512 161.473 166.512V174.512ZM169.659 173.143C172.374 172.193 174.771 170.884 176.646 169.091L171.116 163.309C170.292 164.098 168.993 164.9 167.016 165.593L169.659 173.143ZM176.71 169.028C176.614 169.124 176.446 169.256 176.203 169.359C175.958 169.462 175.727 169.496 175.553 169.496V161.496C173.814 161.496 172.248 162.176 171.053 163.372L176.71 169.028ZM175.885 169.482C175.814 169.488 175.626 169.492 175.372 169.415C175.107 169.336 174.867 169.199 174.679 169.034L179.947 163.014C178.551 161.792 176.848 161.374 175.221 161.51L175.885 169.482ZM174.78 169.12C174.801 169.137 174.672 169.037 174.534 168.788C174.384 168.513 174.281 168.161 174.281 167.784H182.281C182.281 165.606 181.127 163.976 179.846 162.928L174.78 169.12ZM174.298 168.146C174.265 167.788 174.327 167.406 174.479 167.067C174.621 166.752 174.785 166.596 174.813 166.571L180.165 172.517C181.46 171.352 182.463 169.601 182.265 167.422L174.298 168.146ZM174.803 166.58C173.399 167.852 171.421 169.026 168.724 170.011L171.47 177.525C174.875 176.281 177.824 174.639 180.175 172.508L174.803 166.58ZM168.701 170.02C166.086 170.994 163.685 171.44 161.473 171.44V179.44C164.776 179.44 168.124 178.772 171.494 177.516L168.701 170.02ZM160.153 127.352C156.46 127.352 153.01 128.212 149.897 129.991L153.866 136.937C155.68 135.9 157.745 135.352 160.153 135.352V127.352ZM149.897 129.991C146.833 131.742 144.338 134.182 142.422 137.233L149.197 141.487C150.449 139.493 152.002 138.002 153.866 136.937L149.897 129.991ZM142.408 137.255C140.526 140.295 139.423 143.76 139.016 147.558L146.97 148.41C147.268 145.637 148.042 143.353 149.21 141.465L142.408 137.255ZM142.993 151.984H177.225V143.984H142.993V151.984ZM181.211 147.652C180.733 141.906 178.633 136.974 174.747 133.161L169.144 138.871C171.476 141.159 172.897 144.206 173.239 148.316L181.211 147.652ZM174.774 133.188C170.85 129.264 165.872 127.352 160.153 127.352V135.352C163.939 135.352 166.822 136.55 169.117 138.844L174.774 133.188ZM197.85 170.952L194.7 173.417L194.717 173.438L194.733 173.459L197.85 170.952ZM195.386 106.976L192.729 103.986L192.641 104.064L192.558 104.148L195.386 106.976ZM199.258 106.976L202.087 104.148L202.087 104.148L199.258 106.976ZM201.634 167.168L198.255 169.308L198.297 169.374L198.341 169.439L201.634 167.168ZM209.818 174.296L212.647 177.124L212.73 177.041L212.808 176.953L209.818 174.296ZM206.122 171C204.039 171 202.41 170.239 200.967 168.445L194.733 173.459C197.632 177.063 201.518 179 206.122 179V171ZM201 168.487C199.565 166.652 198.682 164.097 198.682 160.48H190.682C190.682 165.429 191.912 169.854 194.7 173.417L201 168.487ZM198.682 160.48V108.912H190.682V160.48H198.682ZM198.682 108.912C198.682 108.879 198.687 108.987 198.617 109.179C198.542 109.386 198.408 109.611 198.215 109.804L192.558 104.148C191.169 105.537 190.682 107.297 190.682 108.912H198.682ZM198.044 109.966C197.941 110.057 197.799 110.147 197.633 110.207C197.472 110.266 197.356 110.272 197.322 110.272V102.272C195.664 102.272 194.05 102.812 192.729 103.986L198.044 109.966ZM197.322 110.272C197.356 110.272 197.247 110.277 197.055 110.207C196.848 110.132 196.623 109.997 196.43 109.804L202.087 104.148C200.697 102.758 198.937 102.272 197.322 102.272V110.272ZM196.43 109.804C196.237 109.611 196.102 109.386 196.027 109.179C195.957 108.987 195.962 108.879 195.962 108.912H203.962C203.962 107.297 203.476 105.537 202.087 104.148L196.43 109.804ZM195.962 108.912V160.48H203.962V108.912H195.962ZM195.962 160.48C195.962 163.716 196.631 166.744 198.255 169.308L205.013 165.028C204.408 164.072 203.962 162.641 203.962 160.48H195.962ZM198.341 169.439C200.143 172.051 202.793 173.72 206.122 173.72V165.72C205.814 165.72 205.472 165.687 204.927 164.897L198.341 169.439ZM206.122 173.72H208.322V165.72H206.122V173.72ZM208.322 173.72C208.297 173.72 208.094 173.717 207.799 173.599C207.479 173.471 207.156 173.249 206.899 172.941C206.419 172.364 206.522 171.937 206.522 172.36H214.522C214.522 171.023 214.259 169.276 213.045 167.819C211.715 166.223 209.883 165.72 208.322 165.72V173.72ZM206.522 172.36C206.522 172.326 206.528 172.21 206.587 172.049C206.647 171.883 206.737 171.741 206.829 171.639L212.808 176.953C213.982 175.632 214.522 174.018 214.522 172.36H206.522ZM206.99 171.468C207.183 171.275 207.408 171.14 207.615 171.065C207.807 170.995 207.916 171 207.882 171V179C209.497 179 211.257 178.514 212.647 177.124L206.99 171.468ZM207.882 171H206.122V179H207.882V171ZM224.209 170.952L221.059 173.417L221.075 173.438L221.092 173.459L224.209 170.952ZM221.745 106.976L219.087 103.986L219 104.064L218.917 104.148L221.745 106.976ZM225.617 106.976L228.445 104.148L228.445 104.148L225.617 106.976ZM227.993 167.168L224.614 169.308L224.656 169.374L224.7 169.439L227.993 167.168ZM236.177 174.296L239.005 177.124L239.088 177.041L239.167 176.953L236.177 174.296ZM232.481 171C230.398 171 228.769 170.239 227.326 168.445L221.092 173.459C223.991 177.063 227.876 179 232.481 179V171ZM227.359 168.487C225.923 166.652 225.041 164.097 225.041 160.48H217.041C217.041 165.429 218.271 169.854 221.059 173.417L227.359 168.487ZM225.041 160.48V108.912H217.041V160.48H225.041ZM225.041 108.912C225.041 108.879 225.046 108.987 224.976 109.179C224.901 109.386 224.766 109.611 224.573 109.804L218.917 104.148C217.527 105.537 217.041 107.297 217.041 108.912H225.041ZM224.402 109.966C224.3 110.057 224.158 110.147 223.992 110.207C223.831 110.266 223.714 110.272 223.681 110.272V102.272C222.023 102.272 220.409 102.812 219.087 103.986L224.402 109.966ZM223.681 110.272C223.714 110.272 223.606 110.277 223.414 110.207C223.207 110.132 222.982 109.997 222.789 109.804L228.445 104.148C227.056 102.758 225.296 102.272 223.681 102.272V110.272ZM222.789 109.804C222.595 109.611 222.461 109.386 222.386 109.179C222.316 108.987 222.321 108.879 222.321 108.912H230.321C230.321 107.297 229.835 105.537 228.445 104.148L222.789 109.804ZM222.321 108.912V160.48H230.321V108.912H222.321ZM222.321 160.48C222.321 163.716 222.99 166.744 224.614 169.308L231.372 165.028C230.767 164.072 230.321 162.641 230.321 160.48H222.321ZM224.7 169.439C226.502 172.051 229.152 173.72 232.481 173.72V165.72C232.173 165.72 231.831 165.687 231.286 164.897L224.7 169.439ZM232.481 173.72H234.681V165.72H232.481V173.72ZM234.681 173.72C234.656 173.72 234.453 173.717 234.158 173.599C233.838 173.471 233.515 173.249 233.258 172.941C232.778 172.364 232.881 171.937 232.881 172.36H240.881C240.881 171.023 240.617 169.276 239.404 167.819C238.074 166.223 236.242 165.72 234.681 165.72V173.72ZM232.881 172.36C232.881 172.326 232.887 172.21 232.946 172.049C233.006 171.883 233.096 171.741 233.187 171.639L239.167 176.953C240.341 175.632 240.881 174.018 240.881 172.36H232.881ZM233.349 171.468C233.542 171.275 233.767 171.14 233.974 171.065C234.166 170.995 234.274 171 234.241 171V179C235.856 179 237.616 178.514 239.005 177.124L233.349 171.468ZM234.241 171H232.481V179H234.241V171ZM255.824 172.36L253.798 175.809L253.83 175.828L253.863 175.846L255.824 172.36ZM247.024 163.56L243.537 165.521L243.556 165.554L243.574 165.586L247.024 163.56ZM247.024 138.392L243.561 136.39L243.556 136.399L243.551 136.407L247.024 138.392ZM255.824 129.592L257.808 133.065L257.817 133.06L257.826 133.055L255.824 129.592ZM281.08 129.592L279.054 133.041L279.074 133.053L279.095 133.065L281.08 129.592ZM289.792 138.392L286.305 140.353L286.324 140.386L286.342 140.418L289.792 138.392ZM289.792 163.56L286.329 161.558L286.324 161.567L286.319 161.575L289.792 163.56ZM281.08 172.36L283.064 175.833L283.085 175.821L283.105 175.809L281.08 172.36ZM278.352 168.048L280.389 171.49L280.399 171.484L280.41 171.478L278.352 168.048ZM285.216 161.008L281.738 159.031L281.732 159.042L281.726 159.054L285.216 161.008ZM285.216 140.944L281.709 142.869L281.732 142.91L281.755 142.951L285.216 140.944ZM278.352 133.904L276.263 137.315L276.304 137.34L276.345 137.364L278.352 133.904ZM258.64 133.904L260.646 137.364L260.672 137.349L260.698 137.334L258.64 133.904ZM251.688 140.944L255.148 142.951L255.156 142.936L255.165 142.921L251.688 140.944ZM251.688 161.008L248.21 162.985L248.219 163L248.227 163.015L251.688 161.008ZM258.64 168.048L256.582 171.478L256.607 171.493L256.633 171.508L258.64 168.048ZM268.496 171.528C264.426 171.528 260.888 170.619 257.785 168.874L253.863 175.846C258.269 178.325 263.178 179.528 268.496 179.528V171.528ZM257.849 168.911C254.741 167.086 252.298 164.642 250.473 161.534L243.574 165.586C246.091 169.87 249.514 173.293 253.798 175.809L257.849 168.911ZM250.51 161.599C248.76 158.488 247.856 154.977 247.856 150.976H239.856C239.856 156.244 241.063 161.123 243.537 165.521L250.51 161.599ZM247.856 150.976C247.856 146.906 248.765 143.408 250.497 140.377L243.551 136.407C241.059 140.768 239.856 145.66 239.856 150.976H247.856ZM250.487 140.394C252.31 137.24 254.738 134.819 257.808 133.065L253.839 126.119C249.517 128.589 246.078 132.035 243.561 136.39L250.487 140.394ZM257.826 133.055C260.922 131.265 264.446 130.336 268.496 130.336V122.336C263.159 122.336 258.234 123.578 253.822 126.129L257.826 133.055ZM268.496 130.336C272.546 130.336 276.029 131.265 279.054 133.041L283.105 126.143C278.738 123.578 273.832 122.336 268.496 122.336V130.336ZM279.095 133.065C282.155 134.814 284.544 137.221 286.305 140.353L293.278 136.431C290.816 132.054 287.396 128.594 283.064 126.119L279.095 133.065ZM286.342 140.418C288.119 143.442 289.048 146.925 289.048 150.976H297.048C297.048 145.64 295.806 140.734 293.241 136.366L286.342 140.418ZM289.048 150.976C289.048 154.958 288.123 158.454 286.329 161.558L293.255 165.562C295.801 161.157 297.048 156.264 297.048 150.976H289.048ZM286.319 161.575C284.556 164.661 282.152 167.091 279.054 168.911L283.105 175.809C287.399 173.288 290.804 169.851 293.265 165.545L286.319 161.575ZM279.095 168.887C276.064 170.619 272.566 171.528 268.496 171.528V179.528C273.812 179.528 278.703 178.325 283.064 175.833L279.095 168.887ZM268.496 174.6C272.83 174.6 276.833 173.595 280.389 171.49L276.314 164.606C274.121 165.904 271.553 166.6 268.496 166.6V174.6ZM280.41 171.478C283.93 169.366 286.716 166.515 288.706 162.962L281.726 159.054C280.43 161.368 278.64 163.21 276.294 164.618L280.41 171.478ZM288.693 162.985C290.762 159.346 291.768 155.312 291.768 150.976H283.768C283.768 154.032 283.072 156.686 281.738 159.031L288.693 162.985ZM291.768 150.976C291.768 146.594 290.768 142.544 288.676 138.937L281.755 142.951C283.066 145.211 283.768 147.849 283.768 150.976H291.768ZM288.722 139.019C286.731 135.393 283.926 132.513 280.358 130.444L276.345 137.364C278.643 138.697 280.415 140.511 281.709 142.869L288.722 139.019ZM280.44 130.493C276.877 128.311 272.855 127.264 268.496 127.264V135.264C271.528 135.264 274.077 135.977 276.263 137.315L280.44 130.493ZM268.496 127.264C264.181 127.264 260.176 128.317 256.582 130.474L260.698 137.334C262.97 135.971 265.536 135.264 268.496 135.264V127.264ZM256.633 130.444C253.077 132.506 250.256 135.369 248.21 138.967L255.165 142.921C256.521 140.535 258.336 138.704 260.646 137.364L256.633 130.444ZM248.227 138.937C246.136 142.544 245.136 146.594 245.136 150.976H253.136C253.136 147.849 253.837 145.211 255.148 142.951L248.227 138.937ZM245.136 150.976C245.136 155.312 246.141 159.346 248.21 162.985L255.165 159.031C253.831 156.686 253.136 154.032 253.136 150.976H245.136ZM248.227 163.015C250.271 166.539 253.073 169.373 256.582 171.478L260.698 164.618C258.339 163.203 256.506 161.344 255.148 159.001L248.227 163.015ZM256.633 171.508C260.22 173.589 264.206 174.6 268.496 174.6V166.6C265.51 166.6 262.926 165.91 260.646 164.588L256.633 171.508ZM307.894 159.16L305.066 161.988L305.222 162.145L305.395 162.283L307.894 159.16ZM307.894 106.976L310.552 109.966L310.639 109.888L310.723 109.804L307.894 106.976ZM311.678 106.976L308.689 109.633L308.845 109.809L309.021 109.966L311.678 106.976ZM311.59 159.16L314.248 162.15L314.257 162.141L314.266 162.133L311.59 159.16ZM306.574 173.768L303.65 176.497L303.744 176.598L303.845 176.692L306.574 173.768ZM306.662 167.344L309.391 170.268L306.662 167.344ZM312.91 167.432L309.986 170.161L310.08 170.262L310.181 170.356L312.91 167.432ZM312.91 173.68L310.082 170.852L310.033 170.9L309.986 170.951L312.91 173.68ZM309.83 155.864C309.932 155.864 310.059 155.883 310.185 155.929C310.309 155.974 310.378 156.025 310.393 156.037L305.395 162.283C306.64 163.279 308.155 163.864 309.83 163.864V155.864ZM310.723 156.332C310.807 156.416 310.919 156.562 311.002 156.765C311.085 156.967 311.102 157.135 311.102 157.224H303.102C303.102 159.022 303.77 160.692 305.066 161.988L310.723 156.332ZM311.102 157.224V108.912H303.102V157.224H311.102ZM311.102 108.912C311.102 108.93 311.099 109.091 311.002 109.327C310.9 109.577 310.738 109.8 310.552 109.966L305.237 103.986C303.713 105.341 303.102 107.153 303.102 108.912H311.102ZM310.723 109.804C310.638 109.889 310.492 110.001 310.289 110.084C310.087 110.167 309.919 110.184 309.83 110.184V102.184C308.032 102.184 306.362 102.852 305.066 104.148L310.723 109.804ZM309.83 110.184C309.744 110.184 309.543 110.167 309.289 110.059C309.027 109.946 308.823 109.785 308.689 109.633L314.668 104.319C313.374 102.863 311.633 102.184 309.83 102.184V110.184ZM309.021 109.966C308.835 109.8 308.672 109.577 308.57 109.327C308.474 109.091 308.47 108.93 308.47 108.912H316.47C316.47 107.153 315.86 105.341 314.336 103.986L309.021 109.966ZM308.47 108.912V157.224H316.47V108.912H308.47ZM308.47 157.224C308.47 157.078 308.502 156.861 308.609 156.625C308.714 156.392 308.845 156.249 308.914 156.187L314.266 162.133C315.662 160.877 316.47 159.165 316.47 157.224H308.47ZM308.933 156.17C308.974 156.134 309.085 156.048 309.269 155.974C309.458 155.898 309.655 155.864 309.83 155.864V163.864C311.551 163.864 313.062 163.203 314.248 162.15L308.933 156.17ZM309.83 171C309.473 171 309.386 170.921 309.303 170.844L303.845 176.692C305.522 178.258 307.606 179 309.83 179V171ZM309.498 171.039C309.421 170.956 309.342 170.87 309.342 170.512H301.342C301.342 172.736 302.085 174.82 303.65 176.497L309.498 171.039ZM309.342 170.512C309.342 170.327 309.372 170.272 309.364 170.29C309.362 170.296 309.359 170.302 309.357 170.305C309.355 170.307 309.364 170.294 309.391 170.268L303.933 164.42C302.179 166.057 301.342 168.202 301.342 170.512H309.342ZM309.391 170.268C309.483 170.182 309.539 170.158 309.564 170.148C309.591 170.138 309.667 170.112 309.83 170.112V162.112C307.611 162.112 305.573 162.889 303.933 164.42L309.391 170.268ZM309.83 170.112C309.899 170.112 309.938 170.118 309.951 170.121C309.963 170.123 309.96 170.124 309.949 170.119C309.937 170.113 309.93 170.109 309.931 170.109C309.932 170.111 309.952 170.124 309.986 170.161L315.834 164.703C314.237 162.991 312.141 162.112 309.83 162.112V170.112ZM310.181 170.356C310.218 170.391 310.232 170.41 310.233 170.411C310.233 170.412 310.229 170.406 310.224 170.394C310.219 170.382 310.219 170.379 310.221 170.391C310.224 170.405 310.23 170.443 310.23 170.512H318.23C318.23 168.201 317.351 166.106 315.639 164.508L310.181 170.356ZM310.23 170.512C310.23 170.641 310.21 170.686 310.208 170.69C310.206 170.694 310.185 170.748 310.082 170.852L315.739 176.508C317.36 174.887 318.23 172.817 318.23 170.512H310.23ZM309.986 170.951C309.952 170.988 309.932 171.001 309.931 171.003C309.93 171.003 309.937 170.999 309.949 170.993C309.96 170.988 309.963 170.989 309.951 170.991C309.938 170.994 309.899 171 309.83 171V179C312.141 179 314.237 178.121 315.834 176.409L309.986 170.951Z" fill="#FFE500"/>
</g>
<defs>
<filter id="filter0_ddd_26_797" x="20.1216" y="1.12158" width="335.757" height="282.757" filterUnits="userSpaceOnUse" color-interpolation-filters="sRGB">
<feFlood flood-opacity="0" result="BackgroundImageFix"/>
<feColorMatrix in="SourceAlpha" type="matrix" values="0 0 0 0 0 0 0 0 0 0 0 0 0 0 0 0 0 0 127 0" result="hardAlpha"/>
<feOffset dx="10" dy="15"/>
<feGaussianBlur stdDeviation="2.5"/>
<feColorMatrix type="matrix" values="0 0 0 0 0 0 0 0 0 0 0 0 0 0 0 0 0 0 0.3 0"/>
<feBlend mode="normal" in2="BackgroundImageFix" result="effect1_dropShadow_26_797"/>
<feColorMatrix in="SourceAlpha" type="matrix" values="0 0 0 0 0 0 0 0 0 0 0 0 0 0 0 0 0 0 127 0" result="hardAlpha"/>
<feOffset/>
<feGaussianBlur stdDeviation="2.5"/>
<feColorMatrix type="matrix" values="0 0 0 0 0.690196 0 0 0 0 0.4 0 0 0 0 0.996078 0 0 0 1 0"/>
<feBlend mode="normal" in2="effect1_dropShadow_26_797" result="effect2_dropShadow_26_797"/>
<feColorMatrix in="SourceAlpha" type="matrix" values="0 0 0 0 0 0 0 0 0 0 0 0 0 0 0 0 0 0 127 0" result="hardAlpha"/>
<feOffset/>
<feGaussianBlur stdDeviation="7.5"/>
<feColorMatrix type="matrix" values="0 0 0 0 0.388235 0 0 0 0 0.886275 0 0 0 0 1 0 0 0 1 0"/>
<feBlend mode="normal" in2="effect2_dropShadow_26_797" result="effect3_dropShadow_26_797"/>
<feBlend mode="normal" in="SourceGraphic" in2="effect3_dropShadow_26_797" result="shape"/>
</filter>
<filter id="filter1_dd_26_797" x="55.7998" y="96.1841" width="268.43" height="89.344" filterUnits="userSpaceOnUse" color-interpolation-filters="sRGB">
<feFlood flood-opacity="0" result="BackgroundImageFix"/>
<feColorMatrix in="SourceAlpha" type="matrix" values="0 0 0 0 0 0 0 0 0 0 0 0 0 0 0 0 0 0 127 0" result="hardAlpha"/>
<feOffset/>
<feGaussianBlur stdDeviation="2.5"/>
<feComposite in2="hardAlpha" operator="out"/>
<feColorMatrix type="matrix" values="0 0 0 0 1 0 0 0 0 0.898039 0 0 0 0 0 0 0 0 1 0"/>
<feBlend mode="normal" in2="BackgroundImageFix" result="effect1_dropShadow_26_797"/>
<feColorMatrix in="SourceAlpha" type="matrix" values="0 0 0 0 0 0 0 0 0 0 0 0 0 0 0 0 0 0 127 0" result="hardAlpha"/>
<feOffset/>
<feGaussianBlur stdDeviation="5"/>
<feComposite in2="hardAlpha" operator="out"/>
<feColorMatrix type="matrix" values="0 0 0 0 1 0 0 0 0 0.898039 0 0 0 0 0 0 0 0 0.5 0"/>
<feBlend mode="normal" in2="effect1_dropShadow_26_797" result="effect2_dropShadow_26_797"/>
<feBlend mode="normal" in="SourceGraphic" in2="effect2_dropShadow_26_797" result="shape"/>
</filter>
<linearGradient id="paint0_linear_26_797" x1="38" y1="19" x2="183.789" y2="276.33" gradientUnits="userSpaceOnUse">
<stop stop-color="#63E2FF"/>
<stop offset="1" stop-color="#B066FE"/>
</linearGradient>
<linearGradient id="paint1_linear_26_797" x1="338" y1="261" x2="192.211" y2="3.6699" gradientUnits="userSpaceOnUse">
<stop stop-color="#63E2FF"/>
<stop offset="1" stop-color="#B066FE"/>
</linearGradient>
</defs>
</svg>
