<svg width="15" height="17" viewBox="0 0 15 17" fill="none" xmlns="http://www.w3.org/2000/svg">
<path d="M7.27411 0C7.65381 0 7.9676 0.282154 8.01726 0.648229L8.02411 0.75L8.02351 13.934L12.767 9.17101C13.0593 8.87749 13.5342 8.87647 13.8277 9.16873C14.0945 9.43442 14.1196 9.85103 13.9024 10.1451L13.83 10.2294L7.80598 16.2794C7.76746 16.3181 7.72576 16.3517 7.68173 16.3802C7.66848 16.3883 7.65492 16.3965 7.64109 16.4042C7.62923 16.4114 7.61692 16.4178 7.60448 16.4239C7.58637 16.4324 7.56766 16.4407 7.54857 16.4482C7.53385 16.4543 7.51953 16.4594 7.5051 16.464C7.48721 16.4696 7.46814 16.4749 7.44878 16.4796C7.43526 16.483 7.42226 16.4857 7.4092 16.4881C7.38976 16.4914 7.36966 16.4943 7.34931 16.4963C7.33379 16.498 7.31842 16.4991 7.30303 16.4997C7.29369 16.4998 7.28392 16.5 7.27411 16.5L7.24506 16.4996C7.23034 16.4991 7.21563 16.498 7.20096 16.4966L7.27411 16.5C7.22678 16.5 7.18048 16.4956 7.13558 16.4872C7.12486 16.4853 7.11385 16.483 7.10289 16.4804C7.08031 16.4751 7.05857 16.4689 7.03725 16.4618C7.02666 16.4584 7.01535 16.4543 7.00412 16.45C6.98155 16.4412 6.96004 16.4317 6.93908 16.4212C6.92923 16.4163 6.91891 16.4109 6.9087 16.4052C6.89204 16.3958 6.87621 16.3861 6.86078 16.3759C6.84986 16.3687 6.8385 16.3607 6.82731 16.3524L6.81866 16.3459C6.79227 16.3257 6.76725 16.3038 6.74378 16.2803L6.74308 16.2794L0.718085 10.2294C0.425799 9.93593 0.426782 9.46106 0.720281 9.16877C0.987098 8.90306 1.40381 8.87971 1.69697 9.09818L1.78094 9.17097L6.52351 13.932L6.52411 0.75C6.52411 0.335786 6.8599 0 7.27411 0Z" fill="white"/>
</svg>
