<svg width="24" height="24" viewBox="0 0 24 24" fill="none" xmlns="http://www.w3.org/2000/svg">
<path fill-rule="evenodd" clip-rule="evenodd" d="M20.7505 20.4395C21.1645 20.4395 21.5005 20.7755 21.5005 21.1895C21.5005 21.6035 21.1645 21.9395 20.7505 21.9395H13.4975C13.0835 21.9395 12.7475 21.6035 12.7475 21.1895C12.7475 20.7755 13.0835 20.4395 13.4975 20.4395H20.7505ZM16.1163 3.65364C16.1663 3.69264 17.8393 4.99264 17.8393 4.99264C18.4473 5.35464 18.9223 6.00164 19.1023 6.76764C19.2813 7.52564 19.1513 8.30764 18.7343 8.96864C18.7315 8.97305 18.7287 8.97741 18.7191 8.99037L18.7115 9.00038C18.6439 9.08958 18.3496 9.46164 16.8646 11.3222C16.8508 11.3466 16.8351 11.3695 16.8181 11.3916C16.793 11.4244 16.7658 11.4544 16.7367 11.4818C16.6354 11.6093 16.5284 11.7433 16.4159 11.8842L16.188 12.1697C15.7177 12.7587 15.1599 13.4571 14.4981 14.2855L14.1584 14.7106C12.8807 16.3097 11.2444 18.3572 9.14827 20.9796C8.68927 21.5516 8.00127 21.8846 7.26227 21.8936L3.62327 21.9396H3.61327C3.26627 21.9396 2.96427 21.7016 2.88327 21.3626L2.06427 17.8916C1.89527 17.1726 2.06327 16.4306 2.52427 15.8546L11.9443 4.07264C11.9483 4.06864 11.9513 4.06364 11.9553 4.05964C12.9883 2.82464 14.8563 2.64264 16.1163 3.65364ZM10.894 7.787L3.69527 16.7916C3.52427 17.0056 3.46127 17.2816 3.52427 17.5466L4.20527 20.4316L7.24427 20.3936C7.53327 20.3906 7.80027 20.2616 7.97727 20.0416C8.88876 18.9012 10.0343 17.4679 11.2121 15.994L11.6288 15.4726L12.0462 14.9502C13.1508 13.5679 14.2421 12.2021 15.1551 11.0589L10.894 7.787ZM13.1103 5.01664L11.831 6.615L16.0918 9.88593C16.9119 8.8587 17.4514 8.18214 17.5013 8.11764C17.6653 7.85164 17.7293 7.47564 17.6433 7.11364C17.5553 6.74264 17.3243 6.42764 16.9913 6.22664C16.9203 6.17764 15.2353 4.86964 15.1833 4.82864C14.5493 4.32064 13.6243 4.40864 13.1103 5.01664Z" fill="white"/>
</svg>
