<svg width="24" height="24" viewBox="0 0 24 24" fill="none" xmlns="http://www.w3.org/2000/svg">
<path fill-rule="evenodd" clip-rule="evenodd" d="M11.492 2.0367C11.906 2.0367 12.242 2.3727 12.242 2.7867C12.242 3.2007 11.906 3.5367 11.492 3.5367H7.753C5.169 3.5367 3.5 5.3067 3.5 8.0457V16.3597C3.5 19.0987 5.169 20.8687 7.753 20.8687H16.577C19.161 20.8687 20.831 19.0987 20.831 16.3597V12.3317C20.831 11.9177 21.167 11.5817 21.581 11.5817C21.995 11.5817 22.331 11.9177 22.331 12.3317V16.3597C22.331 19.9537 20.018 22.3687 16.577 22.3687H7.753C4.312 22.3687 2 19.9537 2 16.3597V8.0457C2 4.4517 4.312 2.0367 7.753 2.0367H11.492ZM20.2016 2.9153L21.4186 4.1323C22.0116 4.7243 22.3376 5.5113 22.3366 6.3493C22.3366 7.1873 22.0106 7.9733 21.4186 8.5643L13.9096 16.0733C13.3586 16.6243 12.6246 16.9283 11.8446 16.9283H8.0986C7.8966 16.9283 7.7026 16.8463 7.5616 16.7013C7.4206 16.5573 7.3436 16.3623 7.3486 16.1593L7.4426 12.3803C7.4616 11.6283 7.7646 10.9213 8.2966 10.3883H8.2976L15.7706 2.9153C16.9926 1.6953 18.9796 1.6953 20.2016 2.9153ZM15.155 5.6513L9.3576 11.4493C9.0986 11.7083 8.9516 12.0523 8.9426 12.4173L8.8676 15.4283H11.8446C12.2246 15.4283 12.5806 15.2813 12.8496 15.0123L18.682 9.1783L15.155 5.6513ZM16.8306 3.9763L16.215 4.5903L19.742 8.1183L20.3586 7.5033C20.6666 7.1953 20.8366 6.7853 20.8366 6.3493C20.8366 5.9123 20.6666 5.5013 20.3586 5.1933L19.1416 3.9763C18.5046 3.3413 17.4686 3.3413 16.8306 3.9763Z" fill="#454B5B"/>
</svg>
